<?xml version="1.0" encoding="UTF-8" standalone="no"?>
<svg
   svg:contrastcolor="ffea83"
   svg:template="Contrast"
   svg:presentation="2.5"
   svg:layouttype="undefined"
   svg:specialfontid="undefined"
   svg:id1="008"
   svg:id2="203"
   svg:companyname="code snippets"
   svg:companytagline=""
   version="1.1"
   viewBox="0 0 99.999998 13"
   id="svg855"
   sodipodi:docname="cs_logo.svg"
   inkscape:version="1.1.1 (c3084ef, 2021-09-22)"
   width="100"
   height="13"
   xmlns:inkscape="http://www.inkscape.org/namespaces/inkscape"
   xmlns:sodipodi="http://sodipodi.sourceforge.net/DTD/sodipodi-0.dtd"
   xmlns="http://www.w3.org/2000/svg"
   xmlns:svg="http://www.w3.org/2000/svg">
  <defs
     id="defs859" />
  <sodipodi:namedview
     id="namedview857"
     pagecolor="#ffffff"
     bordercolor="#666666"
     borderopacity="1.0"
     inkscape:pageshadow="2"
     inkscape:pageopacity="0.0"
     inkscape:pagecheckerboard="0"
     showgrid="false"
     inkscape:zoom="2.2885431"
     inkscape:cx="170.85106"
     inkscape:cy="65.762363"
     inkscape:window-width="1678"
     inkscape:window-height="969"
     inkscape:window-x="0"
     inkscape:window-y="799"
     inkscape:window-maximized="0"
     inkscape:current-layer="svg855"
     units="px"
     height="13mm" />
  <g
     data-paper-data="{&quot;isPrimaryText&quot;:true}"
     fill-rule="nonzero"
     id="g845"
     transform="matrix(0.23809526,0,0,0.23853822,-15.476193,-49.907292)"
     style="font-family:none;mix-blend-mode:normal;fill:#f68d2e;fill-opacity:1;stroke:none;stroke-width:1;stroke-linecap:butt;stroke-linejoin:miter;stroke-miterlimit:10;stroke-dasharray:none;stroke-dashoffset:0">
    <path
       d="m 168.3521,245.05739 c 0.33525,0 0.64764,0.0648 0.93717,0.19429 0.28953,0.12953 0.54478,0.30096 0.76573,0.5143 0.22096,0.21334 0.3962,0.46858 0.52573,0.76573 0.12953,0.29715 0.19429,0.61335 0.19429,0.9486 0,0.64002 -0.25143,1.21908 -0.7543,1.73719 -3.39818,2.71245 -7.23066,4.06867 -11.49743,4.06867 -5.05917,0 -9.37166,-1.7829 -12.93747,-5.3487 -3.5658,-3.5658 -5.3487,-7.87829 -5.3487,-12.93747 0,-5.04394 1.7829,-9.3488 5.3487,-12.91461 3.58104,-3.58104 7.89353,-5.37156 12.93747,-5.37156 4.32773,0 8.2364,1.4248 11.72601,4.27439 0.42668,0.41144 0.64002,0.96764 0.64002,1.66861 0,0.35048 -0.0609,0.67049 -0.18286,0.96002 -0.12191,0.28953 -0.29334,0.54478 -0.5143,0.76573 -0.22096,0.22096 -0.48001,0.39239 -0.77716,0.5143 -0.29715,0.12191 -0.61335,0.18286 -0.9486,0.18286 -0.5943,0 -1.1505,-0.22858 -1.66861,-0.68573 -1.15812,-0.91431 -2.43435,-1.61528 -3.82867,-2.10291 -1.39432,-0.48763 -2.87626,-0.73145 -4.44583,-0.73145 -3.71819,0 -6.89541,1.31813 -9.53167,3.95438 -2.60578,2.60578 -3.90867,5.76776 -3.90867,9.48595 0,3.73343 1.30289,6.90303 3.90867,9.50881 2.62102,2.62102 5.79824,3.93153 9.53167,3.93153 3.18484,0 5.98872,-0.98288 8.41164,-2.94865 0.3962,-0.27429 0.86859,-0.41906 1.41718,-0.4343 z"
       data-paper-data="{&quot;glyphName&quot;:&quot;C&quot;,&quot;glyphIndex&quot;:0,&quot;firstGlyphOfWord&quot;:true,&quot;word&quot;:1}"
       id="path821"
       style="fill:#f68d2e;fill-opacity:1" />
    <path
       d="m 191.34696,221.55966 c -1.88957,0 -3.61533,0.32763 -5.17727,0.98288 -1.56194,0.65525 -3.00579,1.64576 -4.33154,2.9715 -1.32575,1.32575 -2.31244,2.76578 -2.96007,4.32011 -0.64764,1.55432 -0.97145,3.27627 -0.97145,5.16584 0,3.71819 1.31051,6.88779 3.93153,9.50881 2.62102,2.62102 5.79062,3.93153 9.50881,3.93153 3.71819,0 6.88779,-1.31051 9.50881,-3.93153 2.62102,-2.62102 3.93153,-5.79062 3.93153,-9.50881 0,-3.70295 -1.31051,-6.86493 -3.93153,-9.48595 -2.63626,-2.63626 -5.80586,-3.95438 -9.50881,-3.95438 z M 209.63313,235 c 0,5.04394 -1.79052,9.35642 -5.37156,12.93747 -3.5658,3.5658 -7.87067,5.3487 -12.91461,5.3487 -5.05917,0 -9.37166,-1.7829 -12.93747,-5.3487 -3.5658,-3.5658 -5.3487,-7.87829 -5.3487,-12.93747 0,-5.04394 1.7829,-9.3488 5.3487,-12.91461 3.58104,-3.58104 7.89353,-5.37156 12.93747,-5.37156 5.0287,0 9.33357,1.79052 12.91461,5.37156 1.79814,1.79814 3.14294,3.7639 4.03439,5.89729 0.89145,2.13339 1.33718,4.47249 1.33718,7.01732 z"
       data-paper-data="{&quot;glyphName&quot;:&quot;O&quot;,&quot;glyphIndex&quot;:1,&quot;word&quot;:1}"
       id="path823"
       style="fill:#f68d2e;fill-opacity:1" />
    <path
       d="m 222.68488,248.44034 c 3.70295,0 6.86493,-1.31051 9.48595,-3.93153 1.32575,-1.32575 2.31625,-2.76959 2.9715,-4.33154 0.65525,-1.56194 0.98288,-3.2877 0.98288,-5.17727 0,-3.68771 -1.31813,-6.84969 -3.95438,-9.48595 -2.63626,-2.63626 -5.79824,-3.95438 -9.48595,-3.95438 h -4.61726 v 26.88067 z m 0,-31.72651 c 5.0287,0 9.33357,1.79052 12.91461,5.37156 1.79814,1.79814 3.14294,3.76009 4.03439,5.88586 0.89145,2.12577 1.33718,4.46868 1.33718,7.02875 0,5.04394 -1.79052,9.35642 -5.37156,12.93747 -3.5658,3.5658 -7.87067,5.3487 -12.91461,5.3487 h -7.04018 c -0.33525,0 -0.65144,-0.0648 -0.9486,-0.19429 -0.29715,-0.12953 -0.5562,-0.30096 -0.77716,-0.5143 -0.22096,-0.21334 -0.3962,-0.46858 -0.52573,-0.76573 -0.12953,-0.29715 -0.19429,-0.61335 -0.19429,-0.9486 v -31.72651 c 0,-0.33525 0.0648,-0.65144 0.19429,-0.9486 0.12953,-0.29715 0.30477,-0.55239 0.52573,-0.76573 0.22096,-0.21334 0.48001,-0.38477 0.77716,-0.5143 0.29715,-0.12953 0.61335,-0.19429 0.9486,-0.19429 z"
       data-paper-data="{&quot;glyphName&quot;:&quot;D&quot;,&quot;glyphIndex&quot;:2,&quot;word&quot;:1}"
       id="path825"
       style="fill:#f68d2e;fill-opacity:1" />
    <path
       d="m 267.85172,216.71383 c 0.33525,0 0.65144,0.0609 0.9486,0.18286 0.29715,0.12191 0.5562,0.29334 0.77716,0.5143 0.22096,0.22096 0.39239,0.48001 0.5143,0.77716 0.12191,0.29715 0.18286,0.61335 0.18286,0.9486 0,0.35048 -0.0609,0.67049 -0.18286,0.96002 -0.12191,0.28953 -0.29334,0.54478 -0.5143,0.76573 -0.22096,0.22096 -0.48001,0.39239 -0.77716,0.5143 -0.29715,0.12191 -0.61335,0.18286 -0.9486,0.18286 h -21.14338 c -0.35048,0 -0.67049,-0.061 -0.96002,-0.18286 -0.28953,-0.12191 -0.54478,-0.29334 -0.76573,-0.5143 -0.22096,-0.22096 -0.39239,-0.4762 -0.5143,-0.76573 -0.12191,-0.28953 -0.18286,-0.60954 -0.18286,-0.96002 0,-0.33525 0.061,-0.65144 0.18286,-0.9486 0.12191,-0.29715 0.29334,-0.5562 0.5143,-0.77716 0.22096,-0.22096 0.4762,-0.39239 0.76573,-0.5143 0.28953,-0.12191 0.60954,-0.18286 0.96002,-0.18286 z m 0,31.72651 c 0.33525,0 0.65144,0.061 0.9486,0.18286 0.29715,0.12191 0.5562,0.29334 0.77716,0.5143 0.22096,0.22096 0.39239,0.48001 0.5143,0.77716 0.12191,0.29715 0.18286,0.61335 0.18286,0.9486 0,0.35048 -0.0609,0.67049 -0.18286,0.96002 -0.12191,0.28953 -0.29334,0.54478 -0.5143,0.76573 -0.22096,0.22096 -0.48001,0.39239 -0.77716,0.5143 -0.29715,0.12191 -0.61335,0.18286 -0.9486,0.18286 h -21.14338 c -0.35048,0 -0.67049,-0.0609 -0.96002,-0.18286 -0.28953,-0.12191 -0.54478,-0.29334 -0.76573,-0.5143 -0.22096,-0.22096 -0.39239,-0.4762 -0.5143,-0.76573 -0.12191,-0.28953 -0.18286,-0.60954 -0.18286,-0.96002 0,-0.33525 0.061,-0.65144 0.18286,-0.9486 0.12191,-0.29715 0.29334,-0.5562 0.5143,-0.77716 0.22096,-0.22096 0.4762,-0.39239 0.76573,-0.5143 0.28953,-0.12191 0.60954,-0.18286 0.96002,-0.18286 z m -1.76004,-15.86326 c 0.33525,0 0.65144,0.0609 0.9486,0.18286 0.29715,0.12191 0.5562,0.29334 0.77716,0.5143 0.22096,0.22096 0.39239,0.48001 0.5143,0.77716 0.12191,0.29715 0.18286,0.61335 0.18286,0.9486 0,0.35048 -0.0609,0.67049 -0.18286,0.96002 -0.12191,0.28953 -0.29334,0.54478 -0.5143,0.76573 -0.22096,0.22096 -0.48001,0.39239 -0.77716,0.5143 -0.29715,0.12191 -0.61335,0.18286 -0.9486,0.18286 h -17.64615 c -0.56382,-0.0152 -1.10479,-0.25143 -1.6229,-0.70859 -0.48763,-0.44192 -0.73145,-1.01336 -0.73145,-1.71433 0,-0.30477 0.0609,-0.60192 0.18286,-0.89145 0.12191,-0.28953 0.28953,-0.54478 0.50287,-0.76573 0.21334,-0.22096 0.46096,-0.40001 0.74288,-0.53716 0.28191,-0.13715 0.59049,-0.21334 0.92574,-0.22858 z"
       data-paper-data="{&quot;glyphName&quot;:&quot;Ξ&quot;,&quot;glyphIndex&quot;:3,&quot;lastGlyphOfWord&quot;:true,&quot;word&quot;:1}"
       id="path827"
       style="fill:#f68d2e;fill-opacity:1" />
    <path
       d="m 296.99531,235.48001 c -2.20958,-0.65525 -3.87819,-1.50099 -5.00584,-2.53721 -1.12765,-1.03622 -1.91624,-2.0991 -2.36577,-3.18865 -0.44954,-1.08955 -0.6743,-2.24387 -0.6743,-3.46294 0,-1.49337 0.28191,-2.84579 0.84574,-4.05724 0.56382,-1.21146 1.39432,-2.28958 2.49149,-3.23437 h -0.0229 c 1.75242,-1.52385 3.80962,-2.28577 6.17158,-2.28577 0.76192,0 1.52385,0.0952 2.28577,0.28572 0.76192,0.19048 1.49718,0.48001 2.20577,0.86859 0.70859,0.38858 1.37146,0.8724 1.98862,1.45146 0.61716,0.57906 1.16955,1.25717 1.65718,2.03434 0.22858,0.3962 0.34287,0.8305 0.34287,1.30289 0,0.35048 -0.061,0.67049 -0.18286,0.96002 -0.12191,0.28953 -0.29334,0.54478 -0.5143,0.76573 -0.22096,0.22096 -0.48001,0.39239 -0.77716,0.5143 -0.29715,0.12191 -0.61335,0.18286 -0.9486,0.18286 -0.30477,0 -0.57525,-0.0457 -0.81145,-0.13715 -0.2362,-0.0914 -0.44954,-0.22096 -0.64002,-0.38858 -0.19048,-0.16762 -0.37334,-0.36191 -0.54859,-0.58287 -0.17524,-0.22096 -0.36191,-0.4762 -0.56001,-0.76573 -0.36572,-0.53335 -0.86478,-0.93336 -1.49718,-1.20003 -0.6324,-0.26667 -1.31432,-0.40001 -2.04577,-0.40001 -0.57906,0 -1.14289,0.1181 -1.69147,0.35429 -0.54859,0.2362 -1.03622,0.56001 -1.46289,0.97145 -0.42668,0.41144 -0.77335,0.89907 -1.04003,1.46289 -0.26667,0.56382 -0.40001,1.17336 -0.40001,1.82862 0,1.17336 0.32382,2.0991 0.97145,2.77721 0.64764,0.67811 1.76385,1.24575 3.34866,1.7029 2.68197,0.76192 4.78488,1.81338 6.30873,3.15436 1.52385,1.34099 2.56006,2.65911 3.10865,3.95438 0.54859,1.29527 0.82288,2.65911 0.82288,4.09153 0,3.5658 -1.31813,6.46111 -3.95438,8.68593 h 0.0229 c -2.11815,1.79814 -4.52583,2.69721 -7.22304,2.69721 -0.89907,0 -1.79814,-0.11048 -2.69721,-0.33144 -0.89907,-0.22096 -1.76385,-0.54478 -2.59435,-0.97145 -0.8305,-0.42668 -1.60766,-0.96002 -2.33149,-1.60004 -0.72383,-0.64002 -1.35241,-1.36384 -1.88576,-2.17148 -0.32001,-0.41144 -0.48001,-0.89907 -0.48001,-1.46289 0,-0.33525 0.0609,-0.65144 0.18286,-0.9486 0.12191,-0.29715 0.29334,-0.5562 0.5143,-0.77716 0.22096,-0.22096 0.4762,-0.39239 0.76573,-0.5143 0.28953,-0.12191 0.60954,-0.18286 0.96002,-0.18286 0.89907,0 1.57718,0.37334 2.03434,1.12003 0.64002,0.9905 1.44004,1.73719 2.40006,2.24006 0.96002,0.50287 1.99624,0.7543 3.10865,0.7543 0.86859,0 1.68766,-0.17143 2.4572,-0.5143 0.76954,-0.34287 1.44004,-0.80383 2.01148,-1.38289 0.57144,-0.57906 1.02479,-1.26098 1.36003,-2.04577 0.33525,-0.78478 0.50287,-1.61909 0.50287,-2.50292 0,-0.83812 -0.15619,-1.62671 -0.46858,-2.36577 -0.31239,-0.73907 -0.91431,-1.47051 -1.80576,-2.19434 -0.89145,-0.72383 -2.30482,-1.37527 -4.24011,-1.95433 z"
       data-paper-data="{&quot;glyphName&quot;:&quot;S&quot;,&quot;glyphIndex&quot;:4,&quot;firstGlyphOfWord&quot;:true,&quot;word&quot;:2}"
       id="path829"
       style="fill:#f68d2e;fill-opacity:1" />
    <path
       d="m 311.50996,250.86325 v -31.72651 c 0,-0.33525 0.061,-0.65144 0.18286,-0.9486 0.12191,-0.29715 0.29334,-0.5562 0.5143,-0.77716 0.22096,-0.22096 0.4762,-0.39239 0.76573,-0.5143 0.28953,-0.12191 0.60954,-0.18286 0.96002,-0.18286 0.71621,0 1.34099,0.29715 1.87433,0.89145 l 20.38908,26.2178 v -24.68633 c 0,-0.67049 0.2362,-1.24194 0.70859,-1.71433 0.47239,-0.47239 1.04384,-0.70859 1.71433,-0.70859 0.67049,0 1.24194,0.2362 1.71433,0.70859 0.47239,0.47239 0.70859,1.04384 0.70859,1.71433 v 31.72651 c 0,0.35048 -0.0609,0.67049 -0.18286,0.96002 -0.12191,0.28953 -0.29334,0.54478 -0.5143,0.76573 -0.22096,0.22096 -0.48001,0.39239 -0.77716,0.5143 -0.29715,0.12191 -0.61335,0.18286 -0.9486,0.18286 -0.71621,0 -1.33337,-0.28191 -1.85147,-0.84574 l -20.41194,-26.2178 v 24.64061 c 0,0.67049 -0.2362,1.24194 -0.70859,1.71433 -0.47239,0.47239 -1.04384,0.70859 -1.71433,0.70859 -0.67049,0 -1.24194,-0.2362 -1.71433,-0.70859 -0.47239,-0.47239 -0.70859,-1.04384 -0.70859,-1.71433 z"
       data-paper-data="{&quot;glyphName&quot;:&quot;N&quot;,&quot;glyphIndex&quot;:5,&quot;word&quot;:2}"
       id="path831"
       style="fill:#f68d2e;fill-opacity:1" />
    <path
       d="m 350.84808,250.86325 c 0,0.67049 -0.2362,1.24194 -0.70859,1.71433 -0.47239,0.47239 -1.04384,0.70859 -1.71433,0.70859 -0.67049,0 -1.24194,-0.2362 -1.71433,-0.70859 -0.47239,-0.47239 -0.70859,-1.04384 -0.70859,-1.71433 v -31.72651 c 0,-0.67049 0.2362,-1.24194 0.70859,-1.71433 0.47239,-0.47239 1.04384,-0.70859 1.71433,-0.70859 0.67049,0 1.24194,0.2362 1.71433,0.70859 0.47239,0.47239 0.70859,1.04384 0.70859,1.71433 z"
       data-paper-data="{&quot;glyphName&quot;:&quot;I&quot;,&quot;glyphIndex&quot;:6,&quot;word&quot;:2}"
       id="path833"
       style="fill:#f68d2e;fill-opacity:1" />
    <path
       d="m 360.17403,221.55966 v 14.53751 h 4.61726 c 0.9905,0 1.92386,-0.19048 2.80007,-0.57144 0.87621,-0.38096 1.64576,-0.89907 2.30863,-1.55432 0.66287,-0.65525 1.1886,-1.4248 1.57718,-2.30863 0.38858,-0.88383 0.58287,-1.82862 0.58287,-2.83436 0,-1.02098 -0.19429,-1.97338 -0.58287,-2.85721 -0.38858,-0.88383 -0.91431,-1.65337 -1.57718,-2.30863 -0.66287,-0.65525 -1.43623,-1.16955 -2.32006,-1.5429 -0.88383,-0.37334 -1.81338,-0.56001 -2.78864,-0.56001 z m -4.84584,29.30359 v -31.72651 c 0,-0.33525 0.0609,-0.65144 0.18286,-0.9486 0.12191,-0.29715 0.29334,-0.5562 0.5143,-0.77716 0.22096,-0.22096 0.4762,-0.39239 0.76573,-0.5143 0.28953,-0.12191 0.60954,-0.18286 0.96002,-0.18286 h 7.04018 c 1.09717,0 2.16005,0.14477 3.18865,0.4343 1.0286,0.28953 1.99243,0.70097 2.8915,1.23432 0.89907,0.53335 1.72195,1.16955 2.46863,1.90862 0.74669,0.73907 1.38289,1.55813 1.90862,2.4572 0.52573,0.89907 0.93717,1.8629 1.23432,2.8915 0.29715,1.0286 0.44573,2.09148 0.44573,3.18865 0,3.32199 -1.19622,6.1792 -3.58866,8.57164 -2.36196,2.36196 -5.21156,3.54295 -8.54878,3.54295 h -4.61726 v 9.92025 c 0,0.67049 -0.2362,1.24194 -0.70859,1.71433 -0.47239,0.47239 -1.04384,0.70859 -1.71433,0.70859 -0.67049,0 -1.24194,-0.2362 -1.71433,-0.70859 -0.47239,-0.47239 -0.70859,-1.04384 -0.70859,-1.71433 z"
       data-paper-data="{&quot;glyphName&quot;:&quot;P&quot;,&quot;glyphIndex&quot;:7,&quot;word&quot;:2}"
       id="path835"
       style="fill:#f68d2e;fill-opacity:1" />
    <path
       d="m 384.86036,221.55966 v 14.53751 h 4.61726 c 0.9905,0 1.92386,-0.19048 2.80007,-0.57144 0.87621,-0.38096 1.64576,-0.89907 2.30863,-1.55432 0.66287,-0.65525 1.1886,-1.4248 1.57718,-2.30863 0.38858,-0.88383 0.58287,-1.82862 0.58287,-2.83436 0,-1.02098 -0.19429,-1.97338 -0.58287,-2.85721 -0.38858,-0.88383 -0.91431,-1.65337 -1.57718,-2.30863 -0.66287,-0.65525 -1.43623,-1.16955 -2.32006,-1.5429 -0.88383,-0.37334 -1.81338,-0.56001 -2.78864,-0.56001 z m -4.84584,29.30359 v -31.72651 c 0,-0.33525 0.0609,-0.65144 0.18286,-0.9486 0.12191,-0.29715 0.29334,-0.5562 0.5143,-0.77716 0.22096,-0.22096 0.4762,-0.39239 0.76573,-0.5143 0.28953,-0.12191 0.60954,-0.18286 0.96002,-0.18286 h 7.04018 c 1.09717,0 2.16005,0.14477 3.18865,0.4343 1.0286,0.28953 1.99243,0.70097 2.8915,1.23432 0.89907,0.53335 1.72195,1.16955 2.46863,1.90862 0.74669,0.73907 1.38289,1.55813 1.90862,2.4572 0.52573,0.89907 0.93717,1.8629 1.23432,2.8915 0.29715,1.0286 0.44573,2.09148 0.44573,3.18865 0,3.32199 -1.19622,6.1792 -3.58866,8.57164 -2.36196,2.36196 -5.21156,3.54295 -8.54878,3.54295 h -4.61726 v 9.92025 c 0,0.67049 -0.2362,1.24194 -0.70859,1.71433 -0.47239,0.47239 -1.04384,0.70859 -1.71433,0.70859 -0.67049,0 -1.24194,-0.2362 -1.71433,-0.70859 -0.47239,-0.47239 -0.70859,-1.04384 -0.70859,-1.71433 z"
       data-paper-data="{&quot;glyphName&quot;:&quot;P&quot;,&quot;glyphIndex&quot;:8,&quot;word&quot;:2}"
       id="path837"
       style="fill:#f68d2e;fill-opacity:1" />
    <path
       d="m 428.31287,216.71383 c 0.33525,0 0.65144,0.0609 0.9486,0.18286 0.29715,0.12191 0.5562,0.29334 0.77716,0.5143 0.22096,0.22096 0.39239,0.48001 0.5143,0.77716 0.12191,0.29715 0.18286,0.61335 0.18286,0.9486 0,0.35048 -0.0609,0.67049 -0.18286,0.96002 -0.12191,0.28953 -0.29334,0.54478 -0.5143,0.76573 -0.22096,0.22096 -0.48001,0.39239 -0.77716,0.5143 -0.29715,0.12191 -0.61335,0.18286 -0.9486,0.18286 h -21.14338 c -0.35048,0 -0.67049,-0.061 -0.96002,-0.18286 -0.28953,-0.12191 -0.54478,-0.29334 -0.76573,-0.5143 -0.22096,-0.22096 -0.39239,-0.4762 -0.5143,-0.76573 -0.12191,-0.28953 -0.18286,-0.60954 -0.18286,-0.96002 0,-0.33525 0.0609,-0.65144 0.18286,-0.9486 0.12191,-0.29715 0.29334,-0.5562 0.5143,-0.77716 0.22096,-0.22096 0.4762,-0.39239 0.76573,-0.5143 0.28953,-0.12191 0.60954,-0.18286 0.96002,-0.18286 z m 0,31.72651 c 0.33525,0 0.65144,0.061 0.9486,0.18286 0.29715,0.12191 0.5562,0.29334 0.77716,0.5143 0.22096,0.22096 0.39239,0.48001 0.5143,0.77716 0.12191,0.29715 0.18286,0.61335 0.18286,0.9486 0,0.35048 -0.0609,0.67049 -0.18286,0.96002 -0.12191,0.28953 -0.29334,0.54478 -0.5143,0.76573 -0.22096,0.22096 -0.48001,0.39239 -0.77716,0.5143 -0.29715,0.12191 -0.61335,0.18286 -0.9486,0.18286 h -21.14338 c -0.35048,0 -0.67049,-0.0609 -0.96002,-0.18286 -0.28953,-0.12191 -0.54478,-0.29334 -0.76573,-0.5143 -0.22096,-0.22096 -0.39239,-0.4762 -0.5143,-0.76573 -0.12191,-0.28953 -0.18286,-0.60954 -0.18286,-0.96002 0,-0.33525 0.0609,-0.65144 0.18286,-0.9486 0.12191,-0.29715 0.29334,-0.5562 0.5143,-0.77716 0.22096,-0.22096 0.4762,-0.39239 0.76573,-0.5143 0.28953,-0.12191 0.60954,-0.18286 0.96002,-0.18286 z m -1.76004,-15.86326 c 0.33525,0 0.65144,0.0609 0.9486,0.18286 0.29715,0.12191 0.5562,0.29334 0.77716,0.5143 0.22096,0.22096 0.39239,0.48001 0.5143,0.77716 0.12191,0.29715 0.18286,0.61335 0.18286,0.9486 0,0.35048 -0.0609,0.67049 -0.18286,0.96002 -0.12191,0.28953 -0.29334,0.54478 -0.5143,0.76573 -0.22096,0.22096 -0.48001,0.39239 -0.77716,0.5143 -0.29715,0.12191 -0.61335,0.18286 -0.9486,0.18286 h -17.64615 c -0.56382,-0.0152 -1.10479,-0.25143 -1.6229,-0.70859 -0.48763,-0.44192 -0.73145,-1.01336 -0.73145,-1.71433 0,-0.30477 0.0609,-0.60192 0.18286,-0.89145 0.12191,-0.28953 0.28953,-0.54478 0.50287,-0.76573 0.21334,-0.22096 0.46096,-0.40001 0.74288,-0.53716 0.28191,-0.13715 0.59049,-0.21334 0.92574,-0.22858 z"
       data-paper-data="{&quot;glyphName&quot;:&quot;Ξ&quot;,&quot;glyphIndex&quot;:9,&quot;word&quot;:2}"
       id="path839"
       style="fill:#f68d2e;fill-opacity:1" />
    <path
       d="m 459.35365,221.55966 h -9.0288 v 29.30359 c 0,0.67049 -0.2362,1.24194 -0.70859,1.71433 -0.47239,0.47239 -1.04384,0.70859 -1.71433,0.70859 -0.67049,0 -1.24194,-0.2362 -1.71433,-0.70859 -0.47239,-0.47239 -0.70859,-1.04384 -0.70859,-1.71433 v -29.30359 h -9.0288 c -0.67049,0 -1.24194,-0.2362 -1.71433,-0.70859 -0.47239,-0.47239 -0.70859,-1.04384 -0.70859,-1.71433 0,-0.67049 0.2362,-1.24194 0.70859,-1.71433 0.47239,-0.47239 1.04384,-0.70859 1.71433,-0.70859 h 22.90343 c 0.67049,0 1.24194,0.2362 1.71433,0.70859 0.47239,0.47239 0.70859,1.04384 0.70859,1.71433 0,0.67049 -0.2362,1.24194 -0.70859,1.71433 -0.47239,0.47239 -1.04384,0.70859 -1.71433,0.70859 z"
       data-paper-data="{&quot;glyphName&quot;:&quot;T&quot;,&quot;glyphIndex&quot;:10,&quot;word&quot;:2}"
       id="path841"
       style="fill:#f68d2e;fill-opacity:1" />
    <path
       d="m 473.63972,235.48001 c -2.20958,-0.65525 -3.87819,-1.50099 -5.00584,-2.53721 -1.12765,-1.03622 -1.91624,-2.0991 -2.36577,-3.18865 -0.44954,-1.08955 -0.6743,-2.24387 -0.6743,-3.46294 0,-1.49337 0.28191,-2.84579 0.84574,-4.05724 0.56382,-1.21146 1.39432,-2.28958 2.49149,-3.23437 h -0.0229 c 1.75242,-1.52385 3.80962,-2.28577 6.17158,-2.28577 0.76192,0 1.52385,0.0952 2.28577,0.28572 0.76192,0.19048 1.49718,0.48001 2.20577,0.86859 0.70859,0.38858 1.37146,0.8724 1.98862,1.45146 0.61716,0.57906 1.16955,1.25717 1.65718,2.03434 0.22858,0.3962 0.34287,0.8305 0.34287,1.30289 0,0.35048 -0.061,0.67049 -0.18286,0.96002 -0.12191,0.28953 -0.29334,0.54478 -0.5143,0.76573 -0.22096,0.22096 -0.48001,0.39239 -0.77716,0.5143 -0.29715,0.12191 -0.61335,0.18286 -0.9486,0.18286 -0.30477,0 -0.57525,-0.0457 -0.81145,-0.13715 -0.2362,-0.0914 -0.44954,-0.22096 -0.64002,-0.38858 -0.19048,-0.16762 -0.37334,-0.36191 -0.54859,-0.58287 -0.17524,-0.22096 -0.36191,-0.4762 -0.56001,-0.76573 -0.36572,-0.53335 -0.86478,-0.93336 -1.49718,-1.20003 -0.6324,-0.26667 -1.31432,-0.40001 -2.04577,-0.40001 -0.57906,0 -1.14289,0.1181 -1.69147,0.35429 -0.54859,0.2362 -1.03622,0.56001 -1.46289,0.97145 -0.42668,0.41144 -0.77335,0.89907 -1.04003,1.46289 -0.26667,0.56382 -0.40001,1.17336 -0.40001,1.82862 0,1.17336 0.32382,2.0991 0.97145,2.77721 0.64764,0.67811 1.76385,1.24575 3.34866,1.7029 2.68197,0.76192 4.78488,1.81338 6.30873,3.15436 1.52385,1.34099 2.56006,2.65911 3.10865,3.95438 0.54859,1.29527 0.82288,2.65911 0.82288,4.09153 0,3.5658 -1.31813,6.46111 -3.95438,8.68593 h 0.0229 c -2.11815,1.79814 -4.52583,2.69721 -7.22304,2.69721 -0.89907,0 -1.79814,-0.11048 -2.69721,-0.33144 -0.89907,-0.22096 -1.76385,-0.54478 -2.59435,-0.97145 -0.8305,-0.42668 -1.60766,-0.96002 -2.33149,-1.60004 -0.72383,-0.64002 -1.35241,-1.36384 -1.88576,-2.17148 -0.32001,-0.41144 -0.48001,-0.89907 -0.48001,-1.46289 0,-0.33525 0.0609,-0.65144 0.18286,-0.9486 0.12191,-0.29715 0.29334,-0.5562 0.5143,-0.77716 0.22096,-0.22096 0.4762,-0.39239 0.76573,-0.5143 0.28953,-0.12191 0.60954,-0.18286 0.96002,-0.18286 0.89907,0 1.57718,0.37334 2.03434,1.12003 0.64002,0.9905 1.44004,1.73719 2.40006,2.24006 0.96002,0.50287 1.99624,0.7543 3.10865,0.7543 0.86859,0 1.68766,-0.17143 2.4572,-0.5143 0.76954,-0.34287 1.44004,-0.80383 2.01148,-1.38289 0.57144,-0.57906 1.02479,-1.26098 1.36003,-2.04577 0.33525,-0.78478 0.50287,-1.61909 0.50287,-2.50292 0,-0.83812 -0.15619,-1.62671 -0.46858,-2.36577 -0.31239,-0.73907 -0.91431,-1.47051 -1.80576,-2.19434 -0.89145,-0.72383 -2.30482,-1.37527 -4.24011,-1.95433 z"
       data-paper-data="{&quot;glyphName&quot;:&quot;S&quot;,&quot;glyphIndex&quot;:11,&quot;lastGlyphOfWord&quot;:true,&quot;word&quot;:2}"
       id="path843"
       style="fill:#f68d2e;fill-opacity:1" />
  </g>
  <path
     d="M 13.974097,5.2491767 C 13.790289,3.9180606 13.581929,2.4094605 12.320291,1.3418064 11.757394,0.86545627 10.022353,-0.29185977 8.7719577,0.06839403 8.425456,0.16817153 8.1916204,0.39760984 8.1298939,0.69739937 8.0683952,0.99695736 8.1966686,1.3109999 8.4729561,1.5376808 8.7239986,1.7434422 9.046636,1.7680393 9.3311829,1.7898789 c 0.1718749,0.013101 0.3497165,0.02666 0.4566502,0.084604 0.5176889,0.279787 1.0528199,0.5690011 1.4516409,0.9704056 0.468125,0.4717521 0.75772,1.0251199 0.837346,1.6007874 l 0.03465,0.2453034 c 0.095,0.6588916 0.21318,1.4789417 0.05829,2.0619677 -0.02019,0.075178 -0.05094,0.1572498 -0.08215,0.2425428 -0.137224,0.3724383 -0.392399,1.0655821 0.265728,1.4541134 0.193674,0.1144911 0.36509,0.1542638 0.510348,0.1542638 0.192299,0 0.338473,-0.07012 0.427966,-0.1298919 0.907564,-0.6057858 0.685893,-3.1995102 0.68245,-3.2247988 z m -3.024446,3.9446149 c -0.04314,0.027116 -0.08697,0.058395 -0.131947,0.094719 C 10.656385,9.418175 10.543712,9.5701387 10.434714,9.7172727 10.328468,9.8605011 10.228419,9.9956831 10.093029,10.08994 9.7242662,10.347427 9.2774852,10.600777 8.835749,10.803546 8.3036021,11.047701 7.9272667,11.074598 7.3343114,11.039654 5.646773,10.941717 2.7173264,10.429499 2.0546101,8.0985516 1.5410509,6.2913135 1.9598381,4.4178619 3.1475881,3.20974 3.6604602,2.6878674 4.3463536,2.4294628 5.0724022,2.1558822 L 5.2057271,2.1055333 C 5.3044008,2.068289 5.4471319,2.0344935 5.5981261,1.9990893 6.1018169,1.8802326 6.7918428,1.717462 6.9850574,1.1194947 7.1181513,0.7079749 7.0724853,0.39852998 6.8489806,0.19966659 6.4005902,-0.20012896 5.5139103,0.15690437 4.6444398,0.55669993 4.5664184,0.5925641 4.5051512,0.62107025 4.4663699,0.63670353 3.2458057,1.1284584 2.2482901,1.5898669 1.4446762,2.6621158 0.60962577,3.7759777 0.09904988,5.2342288 0.00634287,6.7678892 -0.0700726,8.0337152 0.54927375,9.5273701 1.5841959,10.572724 c 0.9155959,0.924655 2.317441,1.773215 3.5712789,2.161515 0.5700093,0.176563 1.1845356,0.265762 1.8302729,0.265762 0.07412,0 0.1484699,-0.0012 0.2235078,-0.0037 0.7134313,-0.02254 1.2742622,-0.210587 1.8679049,-0.409679 0.1470922,-0.0492 0.2971678,-0.09978 0.4538978,-0.148746 0.6767148,-0.212197 1.9835598,-0.91477 2.4906928,-1.53274 0.358436,-0.43703 0.353619,-1.1839711 -0.01055,-1.5984797 C 11.738584,8.996291 11.332189,8.9530719 10.949658,9.1937747 Z"
     data-paper-data="{&quot;isPathIcon&quot;:true}"
     id="path847"
     style="font-family:none;mix-blend-mode:normal;fill:#f68d2e;fill-opacity:1;fill-rule:evenodd;stroke:none;stroke-width:0.304395;stroke-linecap:butt;stroke-linejoin:miter;stroke-miterlimit:10;stroke-dasharray:none;stroke-dashoffset:0" />
  <path
     style="fill:#f68d2e;fill-opacity:1;stroke-width:0.0395901"
     d="m 11.297557,7.4814363 c 0.233949,0.2555455 0.329159,1.1207126 0,1.0841879 -2.5114213,-0.2786777 -2.9241949,0.9850451 -3.8259893,0 -0.2339483,-0.2555454 -0.3306704,-1.0721858 0,-1.0841879 1.4048028,-0.050989 2.9241953,-0.9850453 3.8259893,0 z"
     id="path924"
     sodipodi:nodetypes="sssss" />
  <path
     style="fill:#f68d2e;fill-opacity:1;stroke-width:0.0413388"
     d="m 4.3304923,2.8766122 c -0.320245,2.392e-4 -0.6681515,0.3707958 -0.6681515,0.6916369 0,1.131615 2.3565885,1.3078074 2.3565885,2.4394224 0,1.1316149 -2.3565885,1.3078076 -2.3565885,2.4394226 0,0.3208409 0.3479065,0.6913978 0.6681515,0.6916369 1.4518534,0.00108 3.0337691,-1.6765047 3.0337691,-3.1310595 0,-1.4545546 -1.5819157,-3.1321428 -3.0337691,-3.1310593 z"
     id="path821-9"
     sodipodi:nodetypes="aaaaaaa" />
</svg>
