<?xml version="1.0" encoding="UTF-8" standalone="no"?>
<svg
   svg:contrastcolor="ffea83"
   svg:template="Contrast"
   svg:presentation="2.5"
   svg:layouttype="undefined"
   svg:specialfontid="undefined"
   svg:id1="008"
   svg:id2="203"
   svg:companyname="code snippets"
   svg:companytagline=""
   version="1.1"
   viewBox="0 0 13 13"
   id="svg855"
   sodipodi:docname="logo.svg"
   inkscape:version="1.1.1 (c3084ef, 2021-09-22)"
   width="13"
   height="13"
   xmlns:inkscape="http://www.inkscape.org/namespaces/inkscape"
   xmlns:sodipodi="http://sodipodi.sourceforge.net/DTD/sodipodi-0.dtd"
   xmlns="http://www.w3.org/2000/svg"
   xmlns:svg="http://www.w3.org/2000/svg">
  <defs
     id="defs859" />
  <sodipodi:namedview
     id="namedview857"
     pagecolor="#ffffff"
     bordercolor="#666666"
     borderopacity="1.0"
     inkscape:pageshadow="2"
     inkscape:pageopacity="0.0"
     inkscape:pagecheckerboard="0"
     showgrid="false"
     inkscape:zoom="5.1471824"
     inkscape:cx="30.307844"
     inkscape:cy="38.95335"
     inkscape:window-width="1678"
     inkscape:window-height="969"
     inkscape:window-x="0"
     inkscape:window-y="799"
     inkscape:window-maximized="0"
     inkscape:current-layer="svg855"
     units="px"
     height="13mm" />
  <path
     d="M 12.975593,5.2491767 C 12.804919,3.9180606 12.611447,2.4094605 11.439958,1.3418064 10.917282,0.86545627 9.3062165,-0.29185977 8.1451668,0.06839403 7.823424,0.16817153 7.6062969,0.39760984 7.548981,0.69739937 7.4918766,0.99695736 7.6109844,1.3109999 7.8675301,1.5376808 c 0.2331045,0.2057614 0.5326882,0.2303585 0.7969031,0.2521981 0.1595937,0.013101 0.3247279,0.02666 0.4240207,0.084604 0.480698,0.279787 0.9775921,0.5690011 1.3479151,0.9704056 0.434676,0.4717521 0.703578,1.0251199 0.777515,1.6007874 l 0.03217,0.2453034 c 0.08821,0.6588916 0.197947,1.4789417 0.05413,2.0619677 -0.01875,0.075178 -0.0473,0.1572498 -0.07628,0.2425428 -0.127419,0.3724383 -0.364361,1.0655821 0.24674,1.4541134 0.179836,0.1144911 0.339003,0.1542638 0.473882,0.1542638 0.178558,0 0.314288,-0.07012 0.397386,-0.1298919 0.842715,-0.6057858 0.636883,-3.1995102 0.633686,-3.2247988 z m -2.808338,3.9446149 c -0.04006,0.027116 -0.08076,0.058395 -0.122519,0.094719 C 9.8949444,9.418175 9.7903223,9.5701387 9.6891126,9.7172727 9.5904583,9.8605011 9.4975582,9.9956831 9.3718424,10.08994 9.0294291,10.347427 8.6145724,10.600777 8.2044,10.803546 7.7102771,11.047701 7.3608323,11.074598 6.810246,11.039654 5.2432889,10.941717 2.5231628,10.429499 1.9078002,8.0985516 1.4309368,6.2913135 1.8198,4.4178619 2.9226806,3.20974 3.398906,2.6878674 4.0357896,2.4294628 4.7099592,2.1558822 L 4.8337575,2.1055333 C 4.9253805,2.068289 5.0579129,2.0344935 5.198118,1.9990893 5.6658181,1.8802326 6.3065389,1.717462 6.4859476,1.1194947 6.6095314,0.7079749 6.5671284,0.39852998 6.359594,0.19966659 5.9432429,-0.20012896 5.1199198,0.15690437 4.3125764,0.55669993 4.2401299,0.5925641 4.1832405,0.62107025 4.1472303,0.63670353 3.0138802,1.1284584 2.087641,1.5898669 1.3414485,2.6621158 0.56606569,3.7759777 0.09197246,5.2342288 0.00588973,6.7678892 c -0.07095528,1.265826 0.50413633,2.7594809 1.46510917,3.8048348 0.850173,0.924655 2.1518507,1.773215 3.316097,2.161515 0.5292799,0.176563 1.0998959,0.265762 1.6994927,0.265762 0.068824,0 0.1378611,-0.0012 0.2075373,-0.0037 0.6624538,-0.02254 1.1832111,-0.210587 1.7344357,-0.409679 0.1365819,-0.0492 0.275934,-0.09978 0.421465,-0.148746 0.6283609,-0.212197 1.8418264,-0.91477 2.3127234,-1.53274 0.332824,-0.43703 0.328351,-1.1839711 -0.0098,-1.5984797 C 10.899816,8.996291 10.52246,8.9530719 10.167262,9.1937747 Z"
     data-paper-data="{&quot;isPathIcon&quot;:true}"
     id="path847"
     style="font-family:none;mix-blend-mode:normal;fill:#f68d2e;fill-opacity:1;fill-rule:evenodd;stroke:none;stroke-width:0.293318;stroke-linecap:butt;stroke-linejoin:miter;stroke-miterlimit:10;stroke-dasharray:none;stroke-dashoffset:0" />
  <path
     style="fill:#f68d2e;fill-opacity:1;stroke-width:0.0381495"
     d="m 10.490302,7.4814363 c 0.217233,0.2555455 0.305639,1.1207126 0,1.0841879 -2.3319702,-0.2786777 -2.7152495,0.9850451 -3.5526072,0 -0.2172317,-0.2555454 -0.3070427,-1.0721858 0,-1.0841879 1.3044241,-0.050989 2.71525,-0.9850453 3.5526072,0 z"
     id="path924"
     sodipodi:nodetypes="sssss" />
  <path
     style="fill:#f68d2e;fill-opacity:1;stroke-width:0.0398345"
     d="M 4.0210616,2.8766122 C 3.7236994,2.8768514 3.4006522,3.247408 3.4006522,3.5682491 c 0,1.131615 2.188201,1.3078074 2.188201,2.4394224 0,1.1316149 -2.188201,1.3078076 -2.188201,2.4394226 0,0.3208409 0.3230472,0.6913978 0.6204094,0.6916369 1.3481128,0.00108 2.8169944,-1.6765047 2.8169944,-3.1310595 0,-1.4545546 -1.4688816,-3.1321428 -2.8169944,-3.1310593 z"
     id="path821-9"
     sodipodi:nodetypes="aaaaaaa" />
</svg>
